<svg xmlns="http://www.w3.org/2000/svg" xmlns:xlink="http://www.w3.org/1999/xlink" width="500" zoomAndPan="magnify" viewBox="0 0 375 374.999991" height="500" preserveAspectRatio="xMidYMid meet" version="1.0"><defs><clipPath id="07726fe8ff"><path d="M 4.574219 6.351562 L 375 6.351562 L 375 375 L 4.574219 375 Z M 4.574219 6.351562 " clip-rule="nonzero"/></clipPath><clipPath id="dabd8a2e55"><path d="M 189.980469 6.351562 C 87.582031 6.351562 4.574219 89.363281 4.574219 191.757812 C 4.574219 294.15625 87.582031 377.164062 189.980469 377.164062 C 292.375 377.164062 375.382812 294.15625 375.382812 191.757812 C 375.382812 89.363281 292.375 6.351562 189.980469 6.351562 Z M 189.980469 6.351562 " clip-rule="nonzero"/></clipPath></defs><g clip-path="url(#07726fe8ff)"><g clip-path="url(#dabd8a2e55)"><path fill="#ffffff" d="M 4.574219 6.351562 L 375.382812 6.351562 L 375.382812 377.164062 L 4.574219 377.164062 Z M 4.574219 6.351562 " fill-opacity="1" fill-rule="nonzero"/></g></g><path fill="#000000" d="M 169.328125 5.15625 C 83.730469 14.574219 13.976562 83.136719 3.648438 167.972656 C 3.3125 170.632812 3.039062 173.304688 2.820312 175.976562 C 2.601562 178.652344 2.4375 181.332031 2.335938 184.011719 C 2.234375 186.695312 2.1875 189.378906 2.199219 192.0625 C 2.214844 194.746094 2.285156 197.429688 2.414062 200.109375 C 2.542969 202.789062 2.726562 205.464844 2.972656 208.140625 C 3.214844 210.8125 3.519531 213.480469 3.878906 216.136719 C 4.238281 218.796875 4.652344 221.449219 5.125 224.09375 C 5.601562 226.734375 6.132812 229.367188 6.71875 231.984375 C 7.304688 234.605469 7.949219 237.210938 8.648438 239.804688 C 9.347656 242.394531 10.105469 244.972656 10.914062 247.53125 C 11.726562 250.09375 12.59375 252.632812 13.511719 255.15625 C 14.433594 257.679688 15.410156 260.183594 16.4375 262.664062 C 17.464844 265.148438 18.546875 267.605469 19.683594 270.042969 C 20.820312 272.476562 22.003906 274.886719 23.246094 277.273438 C 24.484375 279.660156 25.773438 282.015625 27.113281 284.347656 C 28.457031 286.679688 29.847656 288.980469 31.285156 291.25 C 32.726562 293.519531 34.214844 295.761719 35.753906 297.96875 C 37.289062 300.175781 38.875 302.351562 40.503906 304.492188 C 42.136719 306.632812 43.8125 308.738281 45.53125 310.808594 C 47.253906 312.875 49.019531 314.90625 50.828125 316.902344 C 52.640625 318.894531 54.492188 320.851562 56.382812 322.765625 C 58.277344 324.683594 60.210938 326.554688 62.1875 328.390625 C 64.164062 330.222656 66.175781 332.011719 68.226562 333.761719 C 70.28125 335.507812 72.367188 337.210938 74.496094 338.871094 C 76.621094 340.527344 78.78125 342.140625 80.976562 343.707031 C 83.171875 345.273438 85.398438 346.792969 87.660156 348.265625 C 89.921875 349.738281 92.210938 351.160156 94.535156 352.535156 C 96.855469 353.910156 99.207031 355.234375 101.585938 356.507812 C 103.964844 357.785156 106.371094 359.007812 108.804688 360.179688 C 111.238281 361.351562 113.691406 362.472656 116.171875 363.539062 C 118.65625 364.605469 121.15625 365.621094 123.679688 366.582031 C 126.207031 367.542969 128.75 368.449219 131.3125 369.304688 C 140.761719 370.800781 143.78125 364.992188 143.78125 359.9375 L 143.78125 328.265625 C 91.492188 339.539062 80.363281 303.167969 80.363281 303.167969 C 71.703125 281.429688 59.410156 275.621094 59.410156 275.621094 C 42.226562 264 60.746094 264.386719 60.746094 264.386719 C 79.613281 265.710938 89.621094 283.683594 89.621094 283.683594 C 106.042969 312.164062 133.785156 303.726562 144.542969 299.230469 C 146.238281 287.054688 151.222656 278.804688 156.433594 274.121094 C 114.464844 269.441406 70.539062 253.324219 70.539062 181.949219 C 70.539062 161.152344 77.714844 144.480469 89.984375 131.175781 C 88.097656 126.496094 81.484375 107.011719 91.867188 81.714844 C 91.867188 81.714844 107.726562 76.648438 143.78125 100.828125 C 151.472656 98.773438 159.269531 97.226562 167.167969 96.191406 C 175.0625 95.152344 182.996094 94.636719 190.964844 94.636719 C 198.929688 94.636719 206.863281 95.152344 214.761719 96.191406 C 222.660156 97.226562 230.453125 98.773438 238.144531 100.828125 C 274.226562 76.648438 290.058594 81.714844 290.058594 81.714844 C 300.429688 107.011719 293.828125 126.496094 291.945312 131.175781 C 304.210938 144.441406 311.386719 161.152344 311.386719 181.949219 C 311.386719 253.507812 267.210938 269.253906 225.132812 273.9375 C 231.917969 279.746094 238.144531 291.179688 238.144531 308.59375 L 238.144531 359.9375 C 238.144531 364.992188 241.167969 370.988281 250.800781 369.304688 C 253.535156 368.394531 256.25 367.421875 258.941406 366.386719 C 261.632812 365.355469 264.300781 364.261719 266.941406 363.105469 C 269.582031 361.949219 272.195312 360.738281 274.777344 359.460938 C 277.363281 358.1875 279.917969 356.859375 282.441406 355.46875 C 284.964844 354.078125 287.453125 352.632812 289.910156 351.128906 C 292.367188 349.625 294.785156 348.066406 297.171875 346.453125 C 299.554688 344.839844 301.902344 343.175781 304.210938 341.457031 C 306.515625 339.734375 308.785156 337.964844 311.011719 336.140625 C 313.234375 334.316406 315.417969 332.445312 317.558594 330.523438 C 319.695312 328.601562 321.792969 326.632812 323.839844 324.613281 C 325.886719 322.597656 327.890625 320.535156 329.84375 318.425781 C 331.796875 316.316406 333.699219 314.164062 335.554688 311.96875 C 337.40625 309.773438 339.210938 307.539062 340.960938 305.261719 C 342.710938 302.984375 344.40625 300.667969 346.050781 298.316406 C 347.695312 295.960938 349.285156 293.570312 350.816406 291.144531 C 352.351562 288.71875 353.828125 286.257812 355.25 283.765625 C 356.667969 281.269531 358.03125 278.746094 359.332031 276.191406 C 360.636719 273.636719 361.878906 271.050781 363.066406 268.441406 C 364.25 265.828125 365.371094 263.191406 366.433594 260.527344 C 367.496094 257.863281 368.496094 255.179688 369.4375 252.46875 C 370.375 249.761719 371.25 247.03125 372.0625 244.285156 C 372.875 241.535156 373.621094 238.769531 374.308594 235.988281 C 374.992188 233.203125 375.613281 230.40625 376.167969 227.597656 C 376.722656 224.785156 377.214844 221.964844 377.640625 219.132812 C 378.066406 216.296875 378.425781 213.457031 378.71875 210.605469 C 379.015625 207.757812 379.242188 204.902344 379.40625 202.042969 C 379.566406 199.183594 379.664062 196.320312 379.695312 193.457031 C 379.722656 190.59375 379.6875 187.730469 379.585938 184.867188 C 379.484375 182.003906 379.316406 179.144531 379.082031 176.292969 C 378.851562 173.4375 378.550781 170.589844 378.183594 167.746094 C 377.820312 164.90625 377.390625 162.074219 376.894531 159.253906 C 376.398438 156.429688 375.835938 153.621094 375.210938 150.824219 C 374.585938 148.027344 373.894531 145.25 373.140625 142.484375 C 372.386719 139.71875 371.570312 136.972656 370.691406 134.246094 C 369.808594 131.515625 368.867188 128.8125 367.859375 126.125 C 366.855469 123.441406 365.789062 120.78125 364.660156 118.144531 C 363.53125 115.507812 362.339844 112.898438 361.09375 110.316406 C 359.84375 107.734375 358.535156 105.183594 357.167969 102.660156 C 355.800781 100.136719 354.378906 97.644531 352.898438 95.1875 C 351.414062 92.730469 349.878906 90.308594 348.285156 87.917969 C 346.691406 85.53125 345.042969 83.179688 343.339844 80.867188 C 341.636719 78.554688 339.882812 76.28125 338.078125 74.046875 C 336.269531 71.816406 334.414062 69.625 332.503906 67.476562 C 330.597656 65.328125 328.640625 63.222656 326.632812 61.164062 C 324.628906 59.101562 322.578125 57.089844 320.480469 55.125 C 318.378906 53.15625 316.238281 51.238281 314.050781 49.371094 C 311.863281 47.5 309.636719 45.683594 307.367188 43.914062 C 305.09375 42.148438 302.785156 40.433594 300.433594 38.769531 C 298.085938 37.105469 295.699219 35.5 293.273438 33.945312 C 290.851562 32.390625 288.390625 30.894531 285.898438 29.449219 C 283.40625 28.007812 280.878906 26.625 278.324219 25.296875 C 275.765625 23.96875 273.179688 22.699219 270.5625 21.492188 C 267.949219 20.28125 265.304688 19.132812 262.636719 18.042969 C 259.96875 16.953125 257.277344 15.925781 254.558594 14.957031 C 251.84375 13.988281 249.105469 13.085938 246.347656 12.242188 C 243.589844 11.398438 240.8125 10.621094 238.019531 9.90625 C 235.226562 9.1875 232.417969 8.535156 229.59375 7.945312 C 226.769531 7.359375 223.933594 6.835938 221.085938 6.375 C 218.234375 5.914062 215.378906 5.519531 212.511719 5.191406 C 209.644531 4.863281 206.773438 4.597656 203.894531 4.398438 C 201.015625 4.199219 198.132812 4.066406 195.25 4 C 192.363281 3.929688 189.480469 3.929688 186.59375 3.992188 C 183.710938 4.054688 180.828125 4.183594 177.949219 4.378906 C 175.070312 4.574219 172.195312 4.832031 169.328125 5.15625 Z M 169.328125 5.15625 " fill-opacity="1" fill-rule="nonzero"/></svg>