<svg id="svg" xmlns="http://www.w3.org/2000/svg" xmlns:xlink="http://www.w3.org/1999/xlink" width="400" height="400" viewBox="0, 0, 400,400"><g id="svgg"><path id="path0" d="M193.130 100.733 C 143.793 104.330,103.989 140.441,95.753 189.074 L 94.938 193.889 90.710 195.471 C 11.694 225.034,-13.362 252.269,29.815 261.662 C 45.890 265.159,84.684 265.514,108.774 262.385 L 110.325 262.184 112.577 265.533 C 143.866 312.066,206.861 325.765,254.970 296.499 C 280.992 280.669,299.570 253.234,304.262 223.704 C 304.602 221.565,304.942 219.481,305.018 219.074 C 305.128 218.482,306.557 217.818,312.115 215.773 C 365.801 196.023,396.607 174.528,390.185 161.296 C 384.512 149.608,349.263 144.991,298.722 149.317 C 291.661 149.922,289.446 150.004,289.332 149.664 C 289.251 149.420,287.849 147.354,286.218 145.073 C 264.795 115.124,229.078 98.111,193.130 100.733 M212.006 107.621 C 256.609 112.591,292.726 148.640,298.702 194.157 L 298.931 195.906 296.410 194.368 C 259.620 171.928,141.611 171.735,104.142 194.053 L 101.063 195.887 101.312 193.777 C 107.646 140.072,157.187 101.513,212.006 107.621 M346.296 153.505 C 388.960 158.124,387.534 175.107,342.593 197.596 C 333.471 202.160,307.284 213.333,305.708 213.333 C 305.564 213.333,305.544 211.708,305.662 209.722 C 306.604 193.943,301.604 171.839,293.855 157.530 L 292.216 154.505 293.238 154.302 C 294.588 154.033,304.178 153.351,312.037 152.964 C 321.128 152.516,339.898 152.813,346.296 153.505 M222.117 181.495 C 290.659 185.492,321.454 206.162,280.741 220.844 C 229.459 239.337,113.281 232.033,101.835 209.596 C 92.937 192.154,155.253 177.596,222.117 181.495 M94.393 205.093 C 94.346 222.976,98.645 240.896,106.391 255.111 C 107.202 256.598,107.804 257.861,107.729 257.918 C 107.095 258.398,83.262 259.602,74.074 259.617 C 0.288 259.739,7.007 232.765,88.654 201.083 C 91.737 199.887,94.293 198.904,94.334 198.899 C 94.376 198.893,94.402 201.681,94.393 205.093 M103.419 217.912 C 125.925 232.277,193.680 239.232,244.259 232.369 C 254.877 230.928,203.531 243.099,179.444 247.732 C 154.155 252.596,115.865 258.062,114.576 256.992 C 113.813 256.359,108.310 244.948,106.853 240.978 C 104.435 234.390,102.435 226.165,101.323 218.241 C 101.058 216.350,100.988 216.361,103.419 217.912 M298.359 221.574 C 298.264 222.032,297.745 224.574,297.206 227.222 C 281.983 302.015,188.297 331.302,132.066 278.848 C 127.349 274.448,116.962 262.174,117.500 261.636 C 117.558 261.578,121.686 261.015,126.673 260.386 C 178.996 253.783,240.118 240.128,286.111 224.766 C 299.792 220.197,298.580 220.513,298.359 221.574 " stroke="none" fill="#000000" fill-rule="evenodd"></path></g></svg>